<?xml version="1.0" encoding="utf-8"?>
<!-- Generator: Adobe Illustrator 22.1.0, SVG Export Plug-In . SVG Version: 6.00 Build 0)  -->
<svg version="1.1" id="Layer_1" xmlns="http://www.w3.org/2000/svg" xmlns:xlink="http://www.w3.org/1999/xlink" x="0px" y="0px"
	 width="50px"
	 viewBox="0 0 50 12.3" style="enable-background:new 0 0 50 12.3;" xml:space="preserve">
<style type="text/css">
	.st0{fill:#EC1C24;}
	.st1{fill:#404041;}
	.st2{fill:#FFFFFF;}
	.st3{fill:#FFFFFF;stroke:#404041;stroke-width:5.000000e-02;stroke-miterlimit:10;}
</style>
<g>
	<g>
		<g>
			<path class="st0" d="M45.7,9.1L39.5,0H20.7v9.1H45.7z"/>
		</g>
		<g>
			<path class="st1" d="M11.6,0v9.1h27.9L45.7,0H11.6z"/>
		</g>
		<g>
			<polygon class="st1" points="46.7,9.1 43.6,4.6 46.7,0 47.9,0 44.8,4.6 47.9,9.1 			"/>
		</g>
		<g>
			<polygon class="st1" points="48.8,9.1 45.7,4.6 48.8,0 50,0 46.9,4.6 50,9.1 			"/>
		</g>
		<g>
			<path class="st0" d="M16.1,0H4.6C2,0,0,2,0,4.6l0,0c0,2.5,2,4.6,4.6,4.6h11.6c2.5,0,4.6-2,4.6-4.6l0,0C20.7,2,18.7,0,16.1,0z"/>
		</g>
		<g>
			<path class="st2" d="M16.1,1.2c-1.8,0-3.3,1.5-3.3,3.3s1.5,3.3,3.3,3.3c1.8,0,3.3-1.5,3.3-3.3S17.9,1.2,16.1,1.2z M16.1,6.6
				c-1.1,0-2.1-0.9-2.1-2.1s0.9-2.1,2.1-2.1s2.1,0.9,2.1,2.1S17.2,6.6,16.1,6.6z"/>
		</g>
		<g>
			<path class="st2" d="M4.6,1.2c-1.8,0-3.3,1.5-3.3,3.3s1.5,3.3,3.3,3.3s3.3-1.5,3.3-3.3S6.4,1.2,4.6,1.2z M4.6,6.6
				c-1.1,0-2.1-0.9-2.1-2.1s0.9-2.1,2.1-2.1s2.1,0.9,2.1,2.1S5.7,6.6,4.6,6.6z"/>
		</g>
		<g>
			<polygon class="st2" points="12.8,1.2 10.9,1.2 9.7,1.2 7.8,1.2 7.8,2.5 9.7,2.5 9.7,7.8 10.9,7.8 10.9,2.5 12.8,2.5 			"/>
		</g>
		<g>
			<g>
				<polygon class="st3" points="40.2,1.2 38.9,1.2 35.6,5.9 35.6,1.2 34.3,1.2 29.7,7.8 31,7.8 34.3,3.1 34.3,7.8 34.3,7.8 
					35.5,7.8 				"/>
				<polygon class="st3" points="32.4,2.5 33.4,1.2 30.2,1.2 28.9,1.2 24.3,7.8 24.3,7.8 24.3,7.8 28.7,7.8 29.6,6.6 26.5,6.6 
					27.4,5.2 30.6,5.2 31.5,3.9 28.3,3.9 29.3,2.5 				"/>
				<polygon class="st3" points="26.5,1.2 24.8,3.6 23.2,1.2 21.9,1.2 24.2,4.6 22,7.8 23.3,7.8 24.9,5.5 25.5,4.6 27.7,1.2 				"/>
				<polygon class="st3" points="42.4,1.2 41.1,1.2 40.2,2.5 41.5,2.5 				"/>
				<polygon class="st3" points="36.5,7.8 37.8,7.8 41.1,3.1 39.8,3.1 				"/>
			</g>
		</g>
	</g>
	<g>
		<path class="st1" d="M6.6,12.2H5.9l-0.5-0.7H5.2v0.7H4.5V10h1.1c0.6,0,0.9,0.4,0.9,0.8c0,0.3-0.1,0.5-0.5,0.7L6.6,12.2
			C6.6,12.2,6.6,12.2,6.6,12.2z M5.2,10.5V11h0.5c0.2,0,0.2-0.1,0.2-0.3c0-0.1-0.1-0.3-0.2-0.3H5.2z"/>
		<path class="st1" d="M11.1,12.2H9.3V10H11v0.5H9.9v0.3H11v0.5H9.9v0.3h1.2C11.1,11.7,11.1,12.2,11.1,12.2z"/>
		<path class="st1" d="M15.3,11.2c0-0.3,0-0.4,0-0.5V10h0.6v2.2h-0.5L14.4,11l0,0.5v0.7h-0.6V10h0.5L15.3,11.2z"/>
		<path class="st1" d="M19.2,10.5h-0.7V10h1.9v0.5h-0.7v1.7h-0.6V10.5z"/>
		<path class="st1" d="M27.6,11.8h-1l-0.2,0.4h-0.7l1-2.2h0.6l1,2.2h-0.7L27.6,11.8z M27.1,10.6l-0.3,0.7h0.6L27.1,10.6z"/>
		<path class="st1" d="M36,11.9c-0.2,0.2-0.6,0.4-0.9,0.4c-0.9,0-1.2-0.5-1.2-1.2c0-0.6,0.4-1.2,1.2-1.2c0.3,0,0.6,0.1,0.9,0.4
			l-0.4,0.4c-0.2-0.2-0.3-0.2-0.5-0.2c-0.4,0-0.6,0.4-0.6,0.6c0,0.3,0.2,0.6,0.6,0.6c0.2,0,0.4-0.1,0.5-0.2L36,11.9z"/>
		<path class="st1" d="M40.2,11.8h-1L39,12.2h-0.7l1-2.2H40l1,2.2h-0.7L40.2,11.8z M39.7,10.6l-0.3,0.7H40L39.7,10.6z"/>
		<path class="st1" d="M45.7,12.2H45l-0.5-0.7h-0.2v0.7h-0.6V10h1.1c0.6,0,0.9,0.4,0.9,0.8c0,0.3-0.1,0.5-0.5,0.7L45.7,12.2
			L45.7,12.2L45.7,12.2z M44.2,10.5V11h0.5c0.2,0,0.2-0.1,0.2-0.3c0-0.1-0.1-0.3-0.2-0.3H44.2z"/>
	</g>
</g>
</svg>
