<?xml version="1.0" encoding="utf-8"?>
<!-- Generator: Adobe Illustrator 22.1.0, SVG Export Plug-In . SVG Version: 6.00 Build 0)  -->
<svg version="1.1" id="Layer_1" xmlns="http://www.w3.org/2000/svg" xmlns:xlink="http://www.w3.org/1999/xlink" x="0px" y="0px"
	width="275px" height="50px"
	 viewBox="0 0 274.9 50" style="enable-background:new 0 0 274.9 50;" xml:space="preserve">
<style type="text/css">
	.st0{fill:#EC1C24;}
	.st1{fill:#404041;}
	.st2{fill:#FFFFFF;}
	.st3{fill:#FFFFFF;stroke:#404041;stroke-width:5.000000e-02;stroke-miterlimit:10;}
</style>
<path class="st0" d="M251.3,50l-34-50H113.8v50H251.3z"/>
<path class="st1" d="M64,0v50h153.2l34-50H64z"/>
<polygon class="st1" points="256.6,50 239.6,25 256.6,0 263.1,0 246.1,25 263.1,50 "/>
<polygon class="st1" points="268.4,50 251.3,25 268.4,0 274.9,0 257.9,25 274.9,50 "/>
<path class="st0" d="M88.8,0L25,0C11.2,0,0,11.2,0,25v0c0,13.8,11.2,25,25,25h63.8c13.8,0,25-11.2,25-25v0
	C113.8,11.2,102.6,0,88.8,0z"/>
<path class="st2" d="M88.4,6.9c-10,0-18.1,8.1-18.1,18.1c0,10,8.1,18.1,18.1,18.1c10,0,18.1-8.1,18.1-18.1
	C106.5,15,98.4,6.9,88.4,6.9z M88.4,36.3c-6.3,0-11.3-5.1-11.3-11.3c0-6.3,5.1-11.3,11.3-11.3c6.3,0,11.3,5.1,11.3,11.3
	C99.7,31.3,94.7,36.3,88.4,36.3z"/>
<path class="st2" d="M25,6.9C15,6.9,6.9,15,6.9,25C6.9,35,15,43.1,25,43.1c10,0,18.1-8.1,18.1-18.1C43.1,15,35,6.9,25,6.9z M25,36.3
	c-6.3,0-11.3-5.1-11.3-11.3c0-6.3,5.1-11.3,11.3-11.3c6.3,0,11.3,5.1,11.3,11.3C36.3,31.3,31.3,36.3,25,36.3z"/>
<polygon class="st2" points="70.3,6.9 60.1,6.9 53.3,6.9 43.1,6.9 43.1,13.8 53.3,13.8 53.3,43.1 60.1,43.1 60.1,13.8 70.3,13.8 "/>
<g>
	<g>
		<polygon class="st3" points="220.8,6.9 213.7,6.9 195.7,32.6 195.7,6.9 188.6,6.9 163.3,43.1 170.4,43.1 188.6,17 188.6,42.7 
			188.6,43.1 195.4,43.1 		"/>
		<polygon class="st3" points="178.4,14 183.3,6.9 165.9,6.9 158.8,6.9 133.4,43.1 133.4,43.1 133.4,43.1 157.9,43.1 162.9,36 
			145.5,36 150.7,28.5 168.2,28.5 173.1,21.5 155.7,21.5 160.9,14 		"/>
		<polygon class="st3" points="145.4,6.9 136.6,19.9 127.5,6.9 120.4,6.9 133.1,25 120.8,43.1 127.9,43.1 136.7,30.1 140.2,25 
			152.5,6.9 		"/>
		<polygon class="st3" points="232.9,6.9 225.8,6.9 220.9,14 228,14 		"/>
		<polygon class="st3" points="200.5,43.1 207.6,43.1 225.8,17 218.7,17 		"/>
	</g>
</g>
</svg>
