<?xml version="1.0" encoding="utf-8"?>
<!-- Generator: Adobe Illustrator 22.1.0, SVG Export Plug-In . SVG Version: 6.00 Build 0)  -->
<svg version="1.1" id="Layer_1" xmlns="http://www.w3.org/2000/svg" xmlns:xlink="http://www.w3.org/1999/xlink" x="0px" y="0px"
	height="60px" width="288px"
	 viewBox="0 0 288.4 60" style="enable-background:new 0 0 288.4 60;" xml:space="preserve">
<style type="text/css">
	.st0{fill:#FFFFFF;}
	.st1{fill:#ED1C24;}
	.st2{fill:#414042;}
</style>
<path class="st0" d="M284.6,59.9H30c-16.6,0-30-13.4-30-30l0,0C0,13.4,13.4,0,30,0h254.7h3.4l-20.1,30l20.1,30L284.6,59.9z"/>
<g>
	<path class="st1" d="M256.4,55l-34-50H118.9v50H256.4z"/>
	<path class="st2" d="M69.1,5v50h153.3l34-50H69.1z"/>
	<polygon class="st2" points="261.7,55 244.7,30 261.7,5 268.2,5 251.2,30 268.2,55 	"/>
	<polygon class="st2" points="273.5,55 256.5,30 273.5,5 280,5 263,30 280,55 	"/>
	<path class="st1" d="M93.9,5H30.1c-13.8,0-25,11.2-25,25l0,0c0,13.8,11.2,25,25,25h63.8c13.8,0,25-11.2,25-25l0,0
		C118.9,16.2,107.7,5,93.9,5z"/>
	<path class="st0" d="M93.5,11.9c-10,0-18.1,8.1-18.1,18.1s8.1,18.1,18.1,18.1S111.6,40,111.6,30C111.7,20,103.5,11.9,93.5,11.9z
		 M93.5,41.3c-6.3,0-11.3-5.1-11.3-11.3c0-6.3,5.1-11.3,11.3-11.3c6.3,0,11.3,5.1,11.3,11.3C104.9,36.3,99.8,41.3,93.5,41.3z"/>
	<path class="st0" d="M30.1,11.9C20.1,11.9,12,20,12,30s8.1,18.1,18.1,18.1S48.2,40,48.2,30S40.1,11.9,30.1,11.9z M30.1,41.3
		c-6.3,0-11.3-5.1-11.3-11.3c0-6.3,5.1-11.3,11.3-11.3c6.3,0,11.3,5.1,11.3,11.3C41.4,36.3,36.4,41.3,30.1,41.3z"/>
	<polygon class="st0" points="75.4,11.9 65.2,11.9 58.4,11.9 48.2,11.9 48.2,18.8 58.4,18.8 58.4,48.1 65.2,48.1 65.2,18.8 
		75.4,18.8 	"/>
	<g>
		<polygon class="st0" points="132.6,11.9 132.6,12.1 148.6,36 148.6,11.9 155.4,11.9 155.4,48.1 148.6,48.1 132.6,24.3 132.6,48.1 
			125.8,48.1 125.8,11.9 		"/>
		<polygon class="st0" points="182.6,18.7 182.6,11.9 166.7,11.9 159.9,11.9 159.9,18.7 159.9,26.6 159.9,33.4 159.9,41.3 
			159.9,48.1 166.7,48.1 182.6,48.1 182.6,41.3 166.7,41.3 166.7,33.4 182.6,33.4 182.6,26.6 166.7,26.6 166.7,18.7 		"/>
		<polygon class="st0" points="241.2,11.9 239.6,11.9 232.8,11.9 232.8,12.1 216.8,36 216.8,11.9 209.9,11.9 193.9,36 193.9,11.9 
			187.1,11.9 187.1,48.1 193.9,48.1 209.9,24.3 209.9,48.1 216.8,48.1 232.8,24.3 232.8,24.3 		"/>
	</g>
</g>
</svg>
