<?xml version="1.0" encoding="utf-8"?>
<!-- Generator: Adobe Illustrator 26.2.1, SVG Export Plug-In . SVG Version: 6.00 Build 0)  -->
<svg version="1.1" id="Layer_1" xmlns="http://www.w3.org/2000/svg" xmlns:xlink="http://www.w3.org/1999/xlink" x="0px" y="0px"
	 width="266px" height="70px" viewBox="0 0 266 70" style="enable-background:new 0 0 266 70;" xml:space="preserve">
<style type="text/css">
	.st0{fill:#ED1C24;}
	.st1{fill:#F15A24;}
	.st2{fill:#F7931E;}
	.st3{fill:#FBB03B;}
</style>
<g>
	<path class="st0" d="M51.14,0.79v49.33H38.9v-2.86c-3.95,2.47-8.48,3.65-13.32,3.65c-13.91,0-25.45-11.54-25.45-25.45
		C0.13,11.54,11.67,0,25.58,0c4.83,0,9.47,1.38,13.32,3.75V0.79H51.14z M25.58,37.69c6.81,0,12.14-5.33,12.14-12.23
		c0-6.91-5.33-12.23-12.14-12.23s-12.14,5.33-12.14,12.23C13.45,32.36,18.77,37.69,25.58,37.69z"/>
	<path class="st1" d="M59.81,0.79h12.23v1.88C74.91,0.79,78.36,0,81.82,0c13.91,0,22,7.89,22,21.8v28.32H90.4V22
		c0-4.74-3.85-8.58-8.58-8.58c-4.64,0-8.29,3.35-8.58,7.99v28.71H59.81V0.79z"/>
	<path class="st2" d="M126.41,20.62c0,0.2,0,0.3,0.1,0.3c0.1,0,0.2-0.1,0.3-0.2l12.53-19.93h14.7l-15,23.98
		c-0.1,0.3-0.2,0.39-0.2,0.49c0,0.1,0.1,0.3,0.2,0.59l15.29,24.27h-15.1c-5.52-8.78-8.58-13.91-10.46-16.77
		c-1.09-1.68-1.78-2.86-2.17-3.55c-0.1,0-0.2,0.2-0.2,0.49v19.83h-13.42V0.76h13.42V20.62z"/>
	<path class="st3" d="M206.32,0.79v49.33h-12.23v-2.86c-3.95,2.47-8.48,3.65-13.32,3.65c-13.91,0-25.45-11.54-25.45-25.45
		C155.31,11.54,166.86,0,180.77,0c4.83,0,9.47,1.38,13.32,3.75V0.79H206.32z M180.77,37.69c6.81,0,12.14-5.33,12.14-12.23
		c0-6.91-5.33-12.23-12.14-12.23s-12.14,5.33-12.14,12.23C168.63,32.36,173.96,37.69,180.77,37.69z"/>
	<path class="st0" d="M258.8,14.57l-43.72,0V0.76h50.79V7.5C265.87,11.41,262.71,14.57,258.8,14.57z"/>
	<path class="st1" d="M250.1,32.35h-35.01V18.53h42.08v6.74C257.17,29.18,254,32.35,250.1,32.35z"/>
	<path class="st2" d="M239.94,50.12h-24.86V36.31h31.92v6.74C247.01,46.95,243.84,50.12,239.94,50.12z"/>
	<path class="st1" d="M72.29,56.28v12.07H69.3v-0.7c-0.97,0.6-2.08,0.89-3.26,0.89c-3.4,0-6.23-2.82-6.23-6.23s2.82-6.23,6.23-6.23
		c1.18,0,2.32,0.34,3.26,0.92v-0.72H72.29z M66.04,65.3c1.67,0,2.97-1.3,2.97-2.99s-1.3-2.99-2.97-2.99c-1.67,0-2.97,1.3-2.97,2.99
		S64.38,65.3,66.04,65.3z"/>
	<path class="st1" d="M74.41,56.28h3.06v0.53c0.58-0.48,1.5-0.72,2.34-0.72h1.69v3.31h-1.71c-1.13,0-2.03,0.8-2.1,1.93v7.02h-3.28
		V56.28z"/>
	<path class="st1" d="M94.54,56.28v12.07h-2.99v-0.7c-0.97,0.6-2.08,0.89-3.26,0.89c-3.4,0-6.23-2.82-6.23-6.23s2.82-6.23,6.23-6.23
		c1.18,0,2.32,0.34,3.26,0.92v-0.72H94.54z M88.29,65.3c1.67,0,2.97-1.3,2.97-2.99s-1.3-2.99-2.97-2.99c-1.67,0-2.97,1.3-2.97,2.99
		S86.62,65.3,88.29,65.3z"/>
	<path class="st1" d="M107.81,58.81l-2.44,1.81c-0.6-0.53-1.21-1.25-2.63-1.25c-1.64,0-2.94,1.3-2.94,2.92
		c0,1.64,1.3,2.94,2.94,2.94c1.13,0,1.86-0.53,2.61-1.57l2.87,1.45c-1.06,2.03-3.11,3.43-5.53,3.43c-3.48,0-6.25-2.78-6.25-6.25
		c0-3.43,2.78-6.2,6.25-6.2C104.79,56.08,106.84,57.32,107.81,58.81z"/>
	<path class="st2" d="M116.85,61.11c0,0.05,0,0.07,0.02,0.07c0.02,0,0.05-0.02,0.07-0.05l3.05-4.86h3.58l-3.65,5.84
		c-0.02,0.07-0.05,0.1-0.05,0.12c0,0.02,0.02,0.07,0.05,0.14l3.73,5.91h-3.68c-1.35-2.14-2.09-3.39-2.55-4.09
		c-0.26-0.41-0.43-0.7-0.53-0.87c-0.02,0-0.05,0.05-0.05,0.12v4.83h-3.27V56.08h3.27V61.11z"/>
	<path class="st2" d="M126.49,56.08c0.87,0,1.64,0.77,1.64,1.64c0,0.94-0.77,1.66-1.64,1.66c-0.94,0-1.66-0.72-1.66-1.66
		C124.83,56.85,125.55,56.08,126.49,56.08z M124.83,60.61h3.27v7.69h-3.27V60.61z"/>
	<path class="st2" d="M130.24,56.28h3.05v0.53c0.58-0.48,1.49-0.72,2.33-0.72h1.68v3.29h-1.71c-1.13,0-2.02,0.79-2.09,1.92v7h-3.27
		V56.28z"/>
	<path class="st2" d="M150.28,56.28V68.3h-2.98v-0.7c-0.96,0.6-2.07,0.89-3.25,0.89c-3.39,0-6.2-2.81-6.2-6.2
		c0-3.39,2.81-6.2,6.2-6.2c1.18,0,2.31,0.34,3.25,0.91v-0.72H150.28z M144.06,65.27c1.66,0,2.96-1.3,2.96-2.98s-1.3-2.98-2.96-2.98
		c-1.66,0-2.96,1.3-2.96,2.98S142.4,65.27,144.06,65.27z"/>
	<path class="st3" d="M152.66,56.08h3.27V68.3h-3.27V56.08z"/>
	<path class="st3" d="M159.85,65.27v3.27h-7.19v-3.27H159.85z"/>
	<path class="st3" d="M172.28,56.28V68.3h-2.98v-0.7c-0.96,0.6-2.07,0.89-3.25,0.89c-3.39,0-6.2-2.81-6.2-6.2
		c0-3.39,2.81-6.2,6.2-6.2c1.18,0,2.31,0.34,3.25,0.91v-0.72H172.28z M166.05,65.27c1.66,0,2.96-1.3,2.96-2.98s-1.3-2.98-2.96-2.98
		c-1.66,0-2.96,1.3-2.96,2.98S164.4,65.27,166.05,65.27z"/>
	<path class="st3" d="M174.63,56.28h3v0.43c0.55-0.36,1.3-0.63,2.36-0.63c1.56,0,2.79,0.43,3.73,1.2c0.94-0.79,2.19-1.2,3.73-1.2
		c3.39,0,5.36,1.92,5.36,5.31v6.9h-3.27v-6.85c0-1.15-0.94-2.09-2.09-2.09c-1.13,0-2.09,0.82-2.09,1.95v7h-3.27v-6.85
		c0-1.15-0.94-2.09-2.09-2.09c-1.13,0-2.02,0.82-2.09,1.95v7h-3.27V56.28z"/>
	<path class="st3" d="M206.91,56.28V68.3h-2.98v-0.7c-0.96,0.6-2.07,0.89-3.25,0.89c-3.39,0-6.2-2.81-6.2-6.2
		c0-3.39,2.81-6.2,6.2-6.2c1.18,0,2.31,0.34,3.25,0.91v-0.72H206.91z M200.69,65.27c1.66,0,2.96-1.3,2.96-2.98s-1.3-2.98-2.96-2.98
		c-1.66,0-2.96,1.3-2.96,2.98S199.03,65.27,200.69,65.27z"/>
	<rect x="101.22" y="66.53" class="st1" width="3.47" height="3.47"/>
</g>
</svg>
