<?xml version="1.0" encoding="utf-8"?>
<!-- Generator: Adobe Illustrator 22.1.0, SVG Export Plug-In . SVG Version: 6.00 Build 0)  -->
<svg version="1.1" id="Layer_1" xmlns="http://www.w3.org/2000/svg" xmlns:xlink="http://www.w3.org/1999/xlink" x="0px" y="0px"
	width="274.9px" height="67.7px"
	 viewBox="0 0 265 65" style="enable-background:new 0 0 265 65;" xml:space="preserve">
<style type="text/css">
	.st0{fill:#EC1C24;}
	.st1{fill:#404041;}
	.st2{fill:#FFFFFF;}
	.st3{fill:#FFFFFF;stroke:#404041;stroke-width:5.000000e-02;stroke-miterlimit:10;}
</style>
<g>
	<g>
		<g>
			<path class="st0" d="M241.9,48.1L209.1,0h-99.6v48.1H241.9z"/>
		</g>
		<g>
			<path class="st1" d="M61.6,0v48.1h147.5L241.9,0H61.6z"/>
		</g>
		<g>
			<polygon class="st1" points="247,48.1 230.6,24.1 247,0 253.3,0 236.9,24.1 253.3,48.1 			"/>
		</g>
		<g>
			<polygon class="st1" points="258.3,48.1 241.9,24.1 258.3,0 264.6,0 248.2,24.1 264.6,48.1 			"/>
		</g>
		<g>
			<path class="st0" d="M85.4,0L24.1,0C10.8,0,0,10.8,0,24.1v0c0,13.3,10.8,24.1,24.1,24.1h61.4c13.3,0,24.1-10.8,24.1-24.1v0
				C109.5,10.8,98.7,0,85.4,0z"/>
		</g>
		<g>
			<path class="st2" d="M85.1,6.6c-9.6,0-17.4,7.8-17.4,17.4c0,9.6,7.8,17.4,17.4,17.4c9.6,0,17.4-7.8,17.4-17.4
				C102.5,14.4,94.7,6.6,85.1,6.6z M85.1,35c-6,0-10.9-4.9-10.9-10.9c0-6,4.9-10.9,10.9-10.9c6,0,10.9,4.9,10.9,10.9
				C96,30.1,91.1,35,85.1,35z"/>
		</g>
		<g>
			<path class="st2" d="M24.1,6.6c-9.6,0-17.4,7.8-17.4,17.4c0,9.6,7.8,17.4,17.4,17.4c9.6,0,17.4-7.8,17.4-17.4
				C41.5,14.4,33.7,6.6,24.1,6.6z M24.1,35c-6,0-10.9-4.9-10.9-10.9c0-6,4.9-10.9,10.9-10.9c6,0,10.9,4.9,10.9,10.9
				C35,30.1,30.1,35,24.1,35z"/>
		</g>
		<g>
			<polygon class="st2" points="67.7,6.6 57.9,6.6 51.3,6.6 41.5,6.6 41.5,13.2 51.3,13.2 51.3,41.5 57.9,41.5 57.9,13.2 67.7,13.2 
							"/>
		</g>
		<g>
			<g>
				<polygon class="st3" points="212.5,6.6 205.7,6.6 188.4,31.4 188.4,6.6 181.6,6.6 157.1,41.5 164,41.5 181.6,16.4 181.6,41.1 
					181.6,41.5 188.1,41.5 				"/>
				<polygon class="st3" points="171.7,13.4 176.5,6.6 159.7,6.6 152.9,6.6 128.4,41.5 128.4,41.5 128.4,41.5 152,41.5 156.8,34.7 
					140,34.7 145.1,27.5 161.9,27.5 166.6,20.6 149.9,20.6 154.9,13.4 				"/>
				<polygon class="st3" points="140,6.6 131.5,19.1 122.7,6.6 115.9,6.6 128.1,24.1 116.2,41.5 123.1,41.5 131.6,29 134.9,24.1 
					146.8,6.6 				"/>
				<polygon class="st3" points="224.2,6.6 217.4,6.6 212.6,13.4 219.4,13.4 				"/>
				<polygon class="st3" points="193,41.5 199.8,41.5 217.4,16.4 210.5,16.4 				"/>
			</g>
		</g>
	</g>
	<g>
		<path class="st1" d="M35,64.7h-3.7l-2.8-3.9h-1.2v3.9H24V52.8h5.8c3,0,4.6,2,4.6,4.1c0,1.5-0.5,2.7-2.5,3.6l3.1,4V64.7z
			 M27.4,55.5v2.9h2.5c0.9,0,1.3-0.7,1.3-1.4c0-0.7-0.4-1.5-1.3-1.5H27.4z"/>
		<path class="st1" d="M58.6,64.7h-9.5V52.8h9.3v2.8h-6v1.7H58v2.7h-5.6v1.8h6.2V64.7z"/>
		<path class="st1" d="M80.9,59.3c-0.1-1.4-0.1-2-0.1-2.4v-4.1h3.4v11.9h-2.9l-5-6.4l0.1,2.6v3.8H73V52.8h2.9L80.9,59.3z"/>
		<path class="st1" d="M101.7,55.6h-3.5v-2.8h10.3v2.8H105v9.1h-3.3V55.6z"/>
		<path class="st1" d="M146.2,62.7h-5.3l-0.8,2h-3.6l5.3-11.9h3.4l5.3,11.9h-3.6L146.2,62.7z M143.5,56.1l-1.5,3.8h3L143.5,56.1z"/>
		<path class="st1" d="M190.5,63.1c-1.3,1.3-3,1.9-4.8,1.9c-4.7,0-6.5-2.9-6.5-6.2c0-3.1,2-6.3,6.5-6.3c1.7,0,3.3,0.6,4.6,1.9
			l-2.1,2c-0.8-0.8-1.7-1-2.5-1c-2.3,0-3.2,1.9-3.2,3.4c0,1.5,0.8,3.3,3.2,3.3c0.8,0,2-0.3,2.8-1.2L190.5,63.1z"/>
		<path class="st1" d="M212.7,62.7h-5.3l-0.8,2H203l5.3-11.9h3.4l5.3,11.9h-3.6L212.7,62.7z M210,56.1l-1.5,3.8h3L210,56.1z"/>
		<path class="st1" d="M241.6,64.7h-3.7l-2.8-3.9h-1.2v3.9h-3.4V52.8h5.8c3,0,4.6,2,4.6,4.1c0,1.5-0.5,2.7-2.5,3.6l3.1,4V64.7z
			 M233.9,55.5v2.9h2.5c0.9,0,1.3-0.7,1.3-1.4c0-0.7-0.4-1.5-1.3-1.5H233.9z"/>
	</g>
</g>
</svg>
