<?xml version="1.0" encoding="utf-8"?>
<!-- Generator: Adobe Illustrator 22.1.0, SVG Export Plug-In . SVG Version: 6.00 Build 0)  -->
<svg version="1.1" id="Layer_1" xmlns="http://www.w3.org/2000/svg" xmlns:xlink="http://www.w3.org/1999/xlink" x="0px" y="0px"
	width="289px" height="60px"
	 viewBox="0 0 288.4 60" style="enable-background:new 0 0 288.4 60;" xml:space="preserve">
<style type="text/css">
	.st0{fill:#FFFFFF;}
	.st1{fill:#EC1C24;}
	.st2{fill:#404041;}
	.st3{fill:#FFFFFF;stroke:#404041;stroke-width:5.000000e-02;stroke-miterlimit:10;}
</style>
<path class="st0" d="M284.6,59.9H30c-16.6,0-30-13.4-30-30l0,0C0,13.4,13.4,0,30,0h254.7h3.4L268,30l20.1,30L284.6,59.9z"/>
<g>
	<path class="st1" d="M256.4,55l-34-50H118.9v50H256.4z"/>
	<path class="st2" d="M69.1,5v50h153.2l34-50H69.1z"/>
	<polygon class="st2" points="261.7,55 244.7,30 261.7,5 268.2,5 251.2,30 268.2,55 	"/>
	<polygon class="st2" points="273.5,55 256.4,30 273.5,5 280,5 263,30 280,55 	"/>
	<path class="st1" d="M93.9,5H30.1c-13.8,0-25,11.2-25,25v0c0,13.8,11.2,25,25,25h63.8c13.8,0,25-11.2,25-25v0
		C118.9,16.2,107.7,5,93.9,5z"/>
	<path class="st0" d="M93.5,11.9c-10,0-18.1,8.1-18.1,18.1c0,10,8.1,18.1,18.1,18.1c10,0,18.1-8.1,18.1-18.1
		C111.6,20,103.5,11.9,93.5,11.9z M93.5,41.3c-6.3,0-11.3-5.1-11.3-11.3c0-6.3,5.1-11.3,11.3-11.3c6.3,0,11.3,5.1,11.3,11.3
		C104.8,36.3,99.8,41.3,93.5,41.3z"/>
	<path class="st0" d="M30.1,11.9C20.1,11.9,12,20,12,30c0,10,8.1,18.1,18.1,18.1c10,0,18.1-8.1,18.1-18.1
		C48.2,20,40.1,11.9,30.1,11.9z M30.1,41.3c-6.3,0-11.3-5.1-11.3-11.3c0-6.3,5.1-11.3,11.3-11.3c6.3,0,11.3,5.1,11.3,11.3
		C41.4,36.3,36.4,41.3,30.1,41.3z"/>
	<polygon class="st0" points="75.4,11.9 65.2,11.9 58.4,11.9 48.2,11.9 48.2,18.8 58.4,18.8 58.4,48.1 65.2,48.1 65.2,18.8 
		75.4,18.8 	"/>
	<g>
		<g>
			<polygon class="st3" points="225.9,11.9 218.8,11.9 200.8,37.6 200.8,11.9 193.7,11.9 168.4,48.1 175.5,48.1 193.7,22 
				193.7,47.7 193.7,48.1 200.5,48.1 			"/>
			<polygon class="st3" points="183.5,19 188.4,11.9 171,11.9 163.9,11.9 138.5,48.1 138.5,48.1 138.5,48.1 163,48.1 168,41 
				150.6,41 155.8,33.5 173.3,33.5 178.2,26.5 160.8,26.5 166,19 			"/>
			<polygon class="st3" points="150.5,11.9 141.7,24.9 132.6,11.9 125.5,11.9 138.2,30 125.9,48.1 133,48.1 141.8,35.1 145.3,30 
				157.6,11.9 			"/>
			<polygon class="st3" points="238,11.9 230.9,11.9 226,19 233.1,19 			"/>
			<polygon class="st3" points="205.6,48.1 212.7,48.1 230.9,22 223.8,22 			"/>
		</g>
	</g>
</g>
</svg>
