<?xml version="1.0" encoding="utf-8"?>
<!-- Generator: Adobe Illustrator 26.2.1, SVG Export Plug-In . SVG Version: 6.00 Build 0)  -->
<svg version="1.1" id="Layer_1" xmlns="http://www.w3.org/2000/svg" xmlns:xlink="http://www.w3.org/1999/xlink" x="0px" y="0px"
	 width="152px" height="40px" viewBox="0 0 152 40" style="enable-background:new 0 0 152 40;" xml:space="preserve">
<style type="text/css">
	.st0{fill:#ED1C24;}
	.st1{fill:#F15A24;}
	.st2{fill:#F7931E;}
	.st3{fill:#FBB03B;}
</style>
<g>
	<path class="st0" d="M29.22,0.45v28.19h-6.99V27c-2.25,1.41-4.85,2.09-7.61,2.09c-7.95,0-14.55-6.6-14.55-14.55
		C0.07,6.6,6.67,0,14.62,0c2.76,0,5.41,0.79,7.61,2.14V0.45H29.22z M14.62,21.54c3.89,0,6.93-3.04,6.93-6.99
		c0-3.95-3.04-6.99-6.93-6.99s-6.93,3.04-6.93,6.99C7.68,18.49,10.73,21.54,14.62,21.54z"/>
	<path class="st1" d="M34.18,0.45h6.99v1.07C42.81,0.45,44.78,0,46.75,0c7.95,0,12.57,4.51,12.57,12.46v16.18h-7.67V12.57
		c0-2.71-2.2-4.9-4.9-4.9c-2.65,0-4.74,1.92-4.9,4.57v16.41h-7.67V0.45z"/>
	<path class="st2" d="M72.23,11.78c0,0.11,0,0.17,0.06,0.17c0.06,0,0.11-0.06,0.17-0.11l7.16-11.39h8.4l-8.57,13.7
		c-0.06,0.17-0.11,0.23-0.11,0.28c0,0.06,0.06,0.17,0.11,0.34l8.74,13.87h-8.63c-3.16-5.02-4.9-7.95-5.98-9.58
		c-0.62-0.96-1.01-1.64-1.24-2.03c-0.06,0-0.11,0.11-0.11,0.28v11.33h-7.67V0.43h7.67V11.78z"/>
	<path class="st3" d="M117.9,0.45v28.19h-6.99V27c-2.25,1.41-4.85,2.09-7.61,2.09c-7.95,0-14.55-6.6-14.55-14.55
		C88.75,6.6,95.35,0,103.3,0c2.76,0,5.41,0.79,7.61,2.14V0.45H117.9z M103.3,21.54c3.89,0,6.93-3.04,6.93-6.99
		c0-3.95-3.04-6.99-6.93-6.99s-6.93,3.04-6.93,6.99C96.36,18.49,99.41,21.54,103.3,21.54z"/>
	<path class="st0" d="M144.86,8.33H122.9V0.43h29.02v0.82C151.93,5.16,148.76,8.33,144.86,8.33z"/>
	<path class="st1" d="M139.88,18.48H122.9v-7.89h24.05v0.82C146.95,15.32,143.79,18.48,139.88,18.48z"/>
	<path class="st2" d="M134.08,28.64H122.9v-7.89h18.24v0.82C141.15,25.47,137.98,28.64,134.08,28.64z"/>
	<path class="st1" d="M41.31,32.16v6.89H39.6v-0.4c-0.55,0.34-1.19,0.51-1.86,0.51c-1.94,0-3.56-1.61-3.56-3.56
		c0-1.94,1.61-3.56,3.56-3.56c0.68,0,1.32,0.19,1.86,0.52v-0.41H41.31z M37.74,37.32c0.95,0,1.7-0.74,1.7-1.71
		c0-0.97-0.74-1.71-1.7-1.71c-0.95,0-1.7,0.74-1.7,1.71C36.04,36.57,36.79,37.32,37.74,37.32z"/>
	<path class="st1" d="M42.52,32.16h1.75v0.3c0.33-0.28,0.86-0.41,1.34-0.41h0.96v1.89H45.6c-0.65,0-1.16,0.46-1.2,1.1v4.01h-1.87
		V32.16z"/>
	<path class="st1" d="M54.02,32.16v6.89h-1.71v-0.4c-0.55,0.34-1.19,0.51-1.86,0.51c-1.94,0-3.56-1.61-3.56-3.56
		c0-1.94,1.61-3.56,3.56-3.56c0.68,0,1.32,0.19,1.86,0.52v-0.41H54.02z M50.45,37.32c0.95,0,1.7-0.74,1.7-1.71
		c0-0.97-0.74-1.71-1.7-1.71c-0.95,0-1.7,0.74-1.7,1.71C48.75,36.57,49.5,37.32,50.45,37.32z"/>
	<path class="st1" d="M61.6,33.61l-1.39,1.03c-0.34-0.3-0.69-0.72-1.5-0.72c-0.94,0-1.68,0.74-1.68,1.67c0,0.94,0.74,1.68,1.68,1.68
		c0.65,0,1.06-0.3,1.49-0.9l1.64,0.83c-0.61,1.16-1.78,1.96-3.16,1.96c-1.99,0-3.57-1.59-3.57-3.57c0-1.96,1.59-3.54,3.57-3.54
		C59.88,32.05,61.05,32.75,61.6,33.61z"/>
	<path class="st2" d="M66.77,34.92c0,0.03,0,0.04,0.01,0.04c0.01,0,0.03-0.01,0.04-0.03l1.74-2.77h2.05l-2.09,3.34
		c-0.01,0.04-0.03,0.06-0.03,0.07c0,0.01,0.01,0.04,0.03,0.08l2.13,3.38h-2.1c-0.77-1.22-1.19-1.94-1.46-2.34
		c-0.15-0.23-0.25-0.4-0.3-0.49c-0.01,0-0.03,0.03-0.03,0.07v2.76H64.9v-6.98h1.87V34.92z"/>
	<path class="st2" d="M72.28,32.05c0.49,0,0.93,0.44,0.93,0.93c0,0.54-0.44,0.95-0.93,0.95c-0.54,0-0.95-0.41-0.95-0.95
		C71.33,32.49,71.74,32.05,72.28,32.05z M71.33,34.63h1.87v4.39h-1.87V34.63z"/>
	<path class="st2" d="M74.42,32.16h1.74v0.3c0.33-0.27,0.85-0.41,1.33-0.41h0.96v1.88h-0.98c-0.65,0-1.15,0.45-1.19,1.1v4h-1.87
		V32.16z"/>
	<path class="st2" d="M85.88,32.16v6.87h-1.7v-0.4c-0.55,0.34-1.18,0.51-1.85,0.51c-1.94,0-3.54-1.61-3.54-3.54
		c0-1.94,1.61-3.54,3.54-3.54c0.67,0,1.32,0.19,1.85,0.52v-0.41H85.88z M82.32,37.3c0.95,0,1.69-0.74,1.69-1.7
		c0-0.96-0.74-1.7-1.69-1.7c-0.95,0-1.69,0.74-1.69,1.7C80.63,36.55,81.37,37.3,82.32,37.3z"/>
	<path class="st3" d="M87.23,32.05h1.87v6.98h-1.87V32.05z"/>
	<path class="st3" d="M91.34,37.3v1.87h-4.11V37.3H91.34z"/>
	<path class="st3" d="M98.45,32.16v6.87h-1.7v-0.4c-0.55,0.34-1.18,0.51-1.85,0.51c-1.94,0-3.54-1.61-3.54-3.54
		c0-1.94,1.61-3.54,3.54-3.54c0.67,0,1.32,0.19,1.85,0.52v-0.41H98.45z M94.89,37.3c0.95,0,1.69-0.74,1.69-1.7
		c0-0.96-0.74-1.7-1.69-1.7c-0.95,0-1.69,0.74-1.69,1.7C93.2,36.55,93.94,37.3,94.89,37.3z"/>
	<path class="st3" d="M99.79,32.16h1.72v0.25c0.32-0.21,0.74-0.36,1.35-0.36c0.89,0,1.59,0.25,2.13,0.69
		c0.54-0.45,1.25-0.69,2.13-0.69c1.94,0,3.06,1.1,3.06,3.04v3.94h-1.87v-3.91c0-0.66-0.54-1.19-1.19-1.19c-0.65,0-1.2,0.47-1.2,1.11
		v4h-1.87v-3.91c0-0.66-0.54-1.19-1.19-1.19c-0.65,0-1.15,0.47-1.2,1.11v4h-1.87V32.16z"/>
	<path class="st3" d="M118.24,32.16v6.87h-1.7v-0.4c-0.55,0.34-1.18,0.51-1.85,0.51c-1.94,0-3.54-1.61-3.54-3.54
		c0-1.94,1.61-3.54,3.54-3.54c0.67,0,1.32,0.19,1.85,0.52v-0.41H118.24z M114.68,37.3c0.95,0,1.69-0.74,1.69-1.7
		c0-0.96-0.74-1.7-1.69-1.7c-0.95,0-1.69,0.74-1.69,1.7C112.99,36.55,113.73,37.3,114.68,37.3z"/>
	<rect x="57.84" y="38.02" class="st1" width="1.98" height="1.98"/>
</g>
</svg>
